<svg width="1378" height="35" viewBox="0 0 1378 35" fill="none" xmlns="http://www.w3.org/2000/svg">
<path d="M0.58065 18.5909C-0.197552 19.3748 -0.192943 20.6411 0.590942 21.4194L13.3651 34.1009C14.149 34.8791 15.4153 34.8745 16.1935 34.0906C16.9717 33.3067 16.9671 32.0404 16.1832 31.2622L4.82841 19.9897L16.1009 8.6349C16.8791 7.85102 16.8745 6.5847 16.0906 5.8065C15.3067 5.0283 14.0404 5.0329 13.2622 5.81679L0.58065 18.5909ZM1377.42 16.4091C1378.2 15.6252 1378.19 14.3589 1377.41 13.5807L1364.63 0.899203C1363.85 0.121002 1362.58 0.12561 1361.81 0.909496C1361.03 1.69338 1361.03 2.9597 1361.82 3.7379L1373.17 15.0104L1361.9 26.3652C1361.12 27.1491 1361.12 28.4154 1361.91 29.1936C1362.69 29.9718 1363.96 29.9672 1364.74 29.1833L1377.42 16.4091ZM2.00728 22L1376.01 17.0001L1375.99 13.0001L1.99272 18L2.00728 22Z" fill="#203631"/>
</svg>
