<svg xmlns="http://www.w3.org/2000/svg" version="1.1" xmlns:xlink="http://www.w3.org/1999/xlink" xmlns:svgjs="http://svgjs.com/svgjs" width="128" height="128"><svg width="128" height="128" viewBox="0 0 128 128" fill="none" xmlns="http://www.w3.org/2000/svg">
<g clip-path="url(#clip0_11_16)">
<path d="M29.5442 73.9338C29.5442 77.5806 28.8553 80.7141 27.4776 83.3344C26.127 85.9277 24.182 87.9132 21.6428 89.2909C19.1305 90.6685 16.1591 91.3574 12.7284 91.3574C10.2431 91.3574 8.08208 91.0332 6.24518 90.3849C4.40827 89.7636 2.94956 89.0883 1.86902 88.3589C0.788491 87.6025 0.126665 87.0353 -0.116455 86.6571L4.42178 76.1624C4.74594 76.6216 5.20517 77.1214 5.79946 77.6616C6.39375 78.2019 7.12311 78.6746 7.98754 79.0798C8.85196 79.458 9.82444 79.6471 10.905 79.6471C12.1476 79.6471 13.2551 79.3905 14.2276 78.8772C15.2001 78.364 15.97 77.5131 16.5372 76.3245C17.1315 75.1359 17.4287 73.5556 17.4287 71.5836V36.8986H29.5442V73.9338Z" fill="#263A29"></path>
<path d="M38.066 91.3574C36.067 91.3574 34.3382 90.6415 32.8795 89.2098C31.4477 87.7511 30.7319 86.0223 30.7319 84.0233C30.7319 81.9703 31.4477 80.2279 32.8795 78.7962C34.3382 77.3375 36.067 76.6081 38.066 76.6081C40.119 76.6081 41.8614 77.3375 43.2931 78.7962C44.7248 80.2279 45.4406 81.9703 45.4406 84.0233C45.4406 86.0223 44.7248 87.7511 43.2931 89.2098C41.8614 90.6415 40.119 91.3574 38.066 91.3574Z" fill="#263A29"></path>
<path d="M101.051 90.3849H86.5044L77.428 53.066H79.6161L70.5396 90.3849H55.9119L43.7154 36.8986H57.6137L64.0564 74.42H63.8943L73.9433 36.8986H83.0603L93.1497 74.42H92.9876L99.4303 36.8986H113.329L101.051 90.3849Z" fill="#263A29"></path>
<path d="M120.625 91.3574C118.626 91.3574 116.898 90.6415 115.439 89.2098C114.007 87.7511 113.291 86.0223 113.291 84.0233C113.291 81.9703 114.007 80.2279 115.439 78.7962C116.898 77.3375 118.626 76.6081 120.625 76.6081C122.678 76.6081 124.421 77.3375 125.852 78.7962C127.284 80.2279 128 81.9703 128 84.0233C128 86.0223 127.284 87.7511 125.852 89.2098C124.421 90.6415 122.678 91.3574 120.625 91.3574Z" fill="#263A29"></path>
</g>
<defs>
<clipPath id="SvgjsClipPath1000">
<rect width="128" height="128" fill="white"></rect>
</clipPath>
</defs>
</svg><style>@media (prefers-color-scheme: light) { :root { filter: none; } }
@media (prefers-color-scheme: dark) { :root { filter: contrast(0.425531914893617) brightness(4); } }
</style></svg>