<svg width="128" height="128" viewBox="0 0 128 128" fill="none" xmlns="http://www.w3.org/2000/svg">
<g clip-path="url(#clip0_109_35)">
<path d="M29.5441 73.9338C29.5441 77.5806 28.8553 80.7141 27.4776 83.3344C26.1269 85.9277 24.182 87.9132 21.6427 89.2909C19.1305 90.6685 16.159 91.3574 12.7283 91.3574C10.2431 91.3574 8.08202 91.0332 6.24512 90.3849C4.40821 89.7636 2.94949 89.0883 1.86896 88.3589C0.78843 87.6025 0.126604 87.0353 -0.116516 86.6571L4.42172 76.1624C4.74588 76.6216 5.20511 77.1214 5.7994 77.6616C6.39369 78.2019 7.12305 78.6746 7.98748 79.0798C8.8519 79.458 9.82438 79.6471 10.9049 79.6471C12.1475 79.6471 13.2551 79.3905 14.2275 78.8772C15.2 78.364 15.9699 77.5131 16.5372 76.3245C17.1315 75.1359 17.4286 73.5556 17.4286 71.5836V36.8986H29.5441V73.9338Z" fill="#203631"/>
<path d="M38.0659 91.3574C36.067 91.3574 34.3381 90.6415 32.8794 89.2098C31.4477 87.7511 30.7318 86.0223 30.7318 84.0233C30.7318 81.9703 31.4477 80.2279 32.8794 78.7962C34.3381 77.3375 36.067 76.6081 38.0659 76.6081C40.119 76.6081 41.8613 77.3375 43.293 78.7962C44.7247 80.2279 45.4406 81.9703 45.4406 84.0233C45.4406 86.0223 44.7247 87.7511 43.293 89.2098C41.8613 90.6415 40.119 91.3574 38.0659 91.3574Z" fill="#203631"/>
<path d="M101.051 90.3849H86.5044L77.4279 53.066H79.616L70.5395 90.3849H55.9118L43.7153 36.8986H57.6137L64.0563 74.42H63.8942L73.9432 36.8986H83.0602L93.1497 74.42H92.9876L99.4303 36.8986H113.329L101.051 90.3849Z" fill="#203631"/>
<path d="M120.625 91.3574C118.626 91.3574 116.898 90.6415 115.439 89.2098C114.007 87.7511 113.291 86.0223 113.291 84.0233C113.291 81.9703 114.007 80.2279 115.439 78.7962C116.898 77.3375 118.626 76.6081 120.625 76.6081C122.678 76.6081 124.421 77.3375 125.852 78.7962C127.284 80.2279 128 81.9703 128 84.0233C128 86.0223 127.284 87.7511 125.852 89.2098C124.421 90.6415 122.678 91.3574 120.625 91.3574Z" fill="#203631"/>
</g>
<defs>
<clipPath id="clip0_109_35">
<rect width="128" height="128" fill="white"/>
</clipPath>
</defs>
</svg>
