<svg width="114" height="114" viewBox="0 0 114 114" fill="none" xmlns="http://www.w3.org/2000/svg">
<g clip-path="url(#clip0_189_14)">
<path d="M26.3127 65.8473C26.3127 69.0952 25.6992 71.886 24.4722 74.2197C23.2693 76.5294 21.5371 78.2977 19.2755 79.5247C17.0381 80.7517 14.3916 81.3652 11.3362 81.3652C9.12276 81.3652 7.19806 81.0765 5.56207 80.4991C3.92608 79.9457 2.62691 79.3442 1.66456 78.6947C0.702208 78.021 0.112769 77.5158 -0.10376 77.179L3.93811 67.8321C4.22681 68.2411 4.63581 68.6862 5.1651 69.1674C5.69439 69.6486 6.34398 70.0696 7.11386 70.4305C7.88374 70.7673 8.74985 70.9357 9.7122 70.9357C10.8189 70.9357 11.8053 70.7072 12.6714 70.25C13.5375 69.7929 14.2232 69.0351 14.7284 67.9765C15.2577 66.9179 15.5224 65.5105 15.5224 63.7542V32.8628H26.3127V65.8473Z" fill="#FCFCFC"/>
<path d="M33.9025 81.3652C32.1221 81.3652 30.5824 80.7276 29.2832 79.4525C28.0081 78.1533 27.3706 76.6136 27.3706 74.8332C27.3706 73.0048 28.0081 71.453 29.2832 70.1779C30.5824 68.8787 32.1221 68.2291 33.9025 68.2291C35.731 68.2291 37.2827 68.8787 38.5579 70.1779C39.833 71.453 40.4705 73.0048 40.4705 74.8332C40.4705 76.6136 39.833 78.1533 38.5579 79.4525C37.2827 80.7276 35.731 81.3652 33.9025 81.3652Z" fill="#FCFCFC"/>
<path d="M89.9986 80.4991H77.043L68.9593 47.2619H70.908L62.8243 80.4991H49.7965L38.934 32.8628H51.3122L57.0502 66.2804H56.9058L65.8557 32.8628H73.9755L82.9614 66.2804H82.8171L88.5551 32.8628H100.933L89.9986 80.4991Z" fill="#FCFCFC"/>
<path d="M107.432 81.3652C105.652 81.3652 104.112 80.7276 102.813 79.4525C101.538 78.1533 100.9 76.6136 100.9 74.8332C100.9 73.0048 101.538 71.453 102.813 70.1779C104.112 68.8787 105.652 68.2291 107.432 68.2291C109.26 68.2291 110.812 68.8787 112.087 70.1779C113.362 71.453 114 73.0048 114 74.8332C114 76.6136 113.362 78.1533 112.087 79.4525C110.812 80.7276 109.26 81.3652 107.432 81.3652Z" fill="#FCFCFC"/>
</g>
<defs>
<clipPath id="clip0_189_14">
<rect width="114" height="114" fill="white"/>
</clipPath>
</defs>
</svg>
