<svg width="64" height="28" viewBox="0 0 64 28" fill="none" xmlns="http://www.w3.org/2000/svg">
<path d="M14.7721 18.9669C14.7721 20.7903 14.4277 22.3571 13.7388 23.6672C13.0635 24.9639 12.091 25.9566 10.8214 26.6454C9.56526 27.3343 8.07953 27.6787 6.36419 27.6787C5.12157 27.6787 4.04104 27.5166 3.12259 27.1925C2.20414 26.8818 1.47478 26.5441 0.934511 26.1795C0.394245 25.8013 0.0633323 25.5176 -0.0582275 25.3285L2.21089 20.0812C2.37297 20.3108 2.60258 20.5607 2.89973 20.8308C3.19688 21.101 3.56156 21.3373 3.99377 21.5399C4.42598 21.729 4.91222 21.8236 5.45249 21.8236C6.07379 21.8236 6.62757 21.6952 7.1138 21.4386C7.60004 21.182 7.98498 20.7565 8.26862 20.1622C8.56577 19.5679 8.71434 18.7778 8.71434 17.7918V0.44928H14.7721V18.9669Z" fill="#203631"/>
<path d="M19.033 27.6787C18.0335 27.6787 17.1691 27.3208 16.4397 26.6049C15.7239 25.8756 15.3659 25.0111 15.3659 24.0116C15.3659 22.9851 15.7239 22.114 16.4397 21.3981C17.1691 20.6687 18.0335 20.3041 19.033 20.3041C20.0595 20.3041 20.9307 20.6687 21.6465 21.3981C22.3624 22.114 22.7203 22.9851 22.7203 24.0116C22.7203 25.0111 22.3624 25.8756 21.6465 26.6049C20.9307 27.3208 20.0595 27.6787 19.033 27.6787Z" fill="#203631"/>
<path d="M50.5256 27.1925H43.2522L38.714 8.53301H39.808L35.2698 27.1925H27.9559L21.8577 0.44928H28.8069L32.0282 19.21H31.9472L36.9716 0.44928H41.5301L46.5749 19.21H46.4938L49.7152 0.44928H56.6643L50.5256 27.1925Z" fill="#203631"/>
<path d="M60.3127 27.6787C59.3132 27.6787 58.4488 27.3208 57.7194 26.6049C57.0036 25.8756 56.6457 25.0111 56.6457 24.0116C56.6457 22.9851 57.0036 22.114 57.7194 21.3981C58.4488 20.6687 59.3132 20.3041 60.3127 20.3041C61.3392 20.3041 62.2104 20.6687 62.9262 21.3981C63.6421 22.114 64 22.9851 64 24.0116C64 25.0111 63.6421 25.8756 62.9262 26.6049C62.2104 27.3208 61.3392 27.6787 60.3127 27.6787Z" fill="#203631"/>
</svg>
