<svg width="76" height="33" viewBox="0 0 76 33" fill="none" xmlns="http://www.w3.org/2000/svg">
<path d="M17.568 21.936C17.568 24.096 17.16 25.952 16.344 27.504C15.544 29.04 14.392 30.216 12.888 31.032C11.4 31.848 9.64 32.256 7.608 32.256C6.136 32.256 4.856 32.064 3.768 31.68C2.68 31.312 1.816 30.912 1.176 30.48C0.536 30.032 0.144 29.696 0 29.472L2.688 23.256C2.88 23.528 3.152 23.824 3.504 24.144C3.856 24.464 4.288 24.744 4.8 24.984C5.312 25.208 5.888 25.32 6.528 25.32C7.264 25.32 7.92 25.168 8.496 24.864C9.072 24.56 9.528 24.056 9.864 23.352C10.216 22.648 10.392 21.712 10.392 20.544V0H17.568V21.936Z" fill="#263A29"/>
<path d="M22.6155 32.256C21.4315 32.256 20.4075 31.832 19.5435 30.984C18.6955 30.12 18.2715 29.096 18.2715 27.912C18.2715 26.696 18.6955 25.664 19.5435 24.816C20.4075 23.952 21.4315 23.52 22.6155 23.52C23.8315 23.52 24.8635 23.952 25.7115 24.816C26.5595 25.664 26.9835 26.696 26.9835 27.912C26.9835 29.096 26.5595 30.12 25.7115 30.984C24.8635 31.832 23.8315 32.256 22.6155 32.256Z" fill="#263A29"/>
<path d="M59.9216 31.68H51.3056L45.9296 9.576H47.2256L41.8496 31.68H33.1856L25.9616 0H34.1936L38.0096 22.224H37.9136L43.8656 0H49.2656L55.2416 22.224H55.1456L58.9616 0H67.1936L59.9216 31.68Z" fill="#263A29"/>
<path d="M71.5155 32.256C70.3315 32.256 69.3075 31.832 68.4435 30.984C67.5955 30.12 67.1715 29.096 67.1715 27.912C67.1715 26.696 67.5955 25.664 68.4435 24.816C69.3075 23.952 70.3315 23.52 71.5155 23.52C72.7315 23.52 73.7635 23.952 74.6115 24.816C75.4595 25.664 75.8835 26.696 75.8835 27.912C75.8835 29.096 75.4595 30.12 74.6115 30.984C73.7635 31.832 72.7315 32.256 71.5155 32.256Z" fill="#263A29"/>
</svg>
