<svg width="42" height="42" viewBox="0 0 42 42" fill="none" xmlns="http://www.w3.org/2000/svg">
<g clip-path="url(#clip0_110_51)">
<path fill-rule="evenodd" clip-rule="evenodd" d="M21.0005 0.875C16.0151 0.877587 11.1933 2.6433 7.39705 5.85642C3.60084 9.06953 1.07786 13.5205 0.279233 18.4135C-0.519394 23.3065 0.458402 28.3224 3.0378 32.5643C5.61721 36.8062 9.63 39.9976 14.3587 41.5677C15.4019 41.7613 15.7948 41.1148 15.7948 40.565C15.7948 40.0152 15.774 38.4213 15.767 36.6786C9.92497 37.9407 8.6905 34.2134 8.6905 34.2134C7.7377 31.793 6.36064 31.1568 6.36064 31.1568C4.45503 29.8637 6.50323 29.8879 6.50323 29.8879C8.61401 30.0365 9.7233 32.042 9.7233 32.042C11.5941 35.2333 14.6368 34.3102 15.8331 33.7708C16.0208 32.4188 16.5668 31.4991 17.1684 30.977C12.5017 30.4515 7.5986 28.6604 7.5986 20.6595C7.56967 18.5845 8.34407 16.5778 9.76155 15.0547C9.54595 14.5291 8.82612 12.4062 9.9667 9.5225C9.9667 9.5225 11.7298 8.96237 15.7427 11.6628C19.1847 10.7268 22.8163 10.7268 26.2583 11.6628C30.2678 8.96237 32.0273 9.5225 32.0273 9.5225C33.1714 12.3992 32.4516 14.5222 32.236 15.0547C33.6579 16.5781 34.4339 18.5882 34.4024 20.6664C34.4024 28.6846 29.4888 30.4515 24.8152 30.9666C25.5663 31.6167 26.2375 32.8856 26.2375 34.8357C26.2375 37.6295 26.2131 39.8769 26.2131 40.565C26.2131 41.1217 26.5921 41.7717 27.6562 41.5677C32.3854 39.9974 36.3986 36.8055 38.978 32.5628C41.5573 28.3202 42.5346 23.3035 41.7351 18.4101C40.9356 13.5167 38.4113 9.06562 34.6139 5.85306C30.8164 2.6405 25.9934 0.875947 21.0074 0.875H21.0005Z" fill="#203631"/>
<path d="M14.0487 34.9567C14.0487 35.1261 13.854 35.2714 13.6036 35.2748C13.3532 35.2783 13.1481 35.14 13.1481 34.9705C13.1481 34.8011 13.3428 34.6559 13.5932 34.6524C13.8435 34.649 14.0487 34.7838 14.0487 34.9567Z" fill="white"/>
<path d="M15.6483 34.6905C15.6796 34.8599 15.5057 35.0362 15.2554 35.0777C15.005 35.1192 14.7859 35.019 14.7546 34.853C14.7233 34.687 14.9042 34.5072 15.1476 34.4623C15.391 34.4173 15.617 34.5211 15.6483 34.6905Z" fill="white"/>
<path d="M12.3308 34.8392C12.2786 35.0017 12.0422 35.0743 11.8057 35.0051C11.5693 34.936 11.4128 34.7423 11.458 34.5764C11.5032 34.4104 11.7431 34.3343 11.9831 34.4104C12.223 34.4865 12.376 34.6697 12.3308 34.8392Z" fill="white"/>
<path d="M10.7556 34.1615C10.6408 34.2894 10.4078 34.2548 10.2166 34.0819C10.0253 33.9091 9.98011 33.6739 10.0949 33.5495C10.2096 33.425 10.4426 33.4596 10.6408 33.629C10.839 33.7984 10.8773 34.037 10.7556 34.1615V34.1615Z" fill="white"/>
<path d="M9.6324 32.9997C9.50373 33.0896 9.28465 32.9997 9.16294 32.8199C9.12928 32.7877 9.10252 32.749 9.08424 32.7062C9.06595 32.6634 9.05652 32.6174 9.05652 32.571C9.05652 32.5245 9.06595 32.4785 9.08424 32.4357C9.10252 32.3929 9.12928 32.3543 9.16294 32.322C9.2916 32.2356 9.51069 32.322 9.6324 32.4984C9.75411 32.6747 9.75758 32.9098 9.6324 32.9997V32.9997Z" fill="white"/>
<path d="M8.80477 31.7999C8.73276 31.836 8.65037 31.8461 8.57171 31.8284C8.49305 31.8108 8.42302 31.7665 8.37358 31.7031C8.23796 31.5579 8.21013 31.3574 8.31445 31.2675C8.41877 31.1776 8.60656 31.2191 8.74218 31.3643C8.8778 31.5095 8.90909 31.71 8.80477 31.7999Z" fill="white"/>
<path d="M7.95273 30.856C7.90753 30.9597 7.74061 30.9909 7.60499 30.9182C7.46938 30.8456 7.36854 30.7108 7.41722 30.6036C7.46591 30.4964 7.62934 30.4688 7.76496 30.5414C7.90058 30.614 8.00489 30.7523 7.95273 30.856Z" fill="white"/>
</g>
<defs>
<clipPath id="clip0_110_51">
<rect width="42" height="42" fill="white"/>
</clipPath>
</defs>
</svg>
