<svg width="48" height="49" viewBox="0 0 48 49" fill="none" xmlns="http://www.w3.org/2000/svg">
<g clip-path="url(#clip0_4_27)">
<ellipse cx="24" cy="25.5" rx="24" ry="23.5" fill="#F2E3DB"/>
<path fill-rule="evenodd" clip-rule="evenodd" d="M24.0005 1.5C18.303 1.50296 12.7923 3.52092 8.45374 7.19305C4.11521 10.8652 1.23181 15.952 0.319089 21.544C-0.593628 27.136 0.523853 32.8684 3.47174 37.7164C6.41963 42.5643 11.0057 46.2115 16.4099 48.0059C17.6021 48.2272 18.0512 47.4883 18.0512 46.86C18.0512 46.2317 18.0273 44.41 18.0194 42.4184C11.3428 43.8608 9.93197 39.601 9.93197 39.601C8.84305 36.8349 7.26927 36.1078 7.26927 36.1078C5.09143 34.6299 7.43223 34.6576 7.43223 34.6576C9.84455 34.8275 11.1123 37.1194 11.1123 37.1194C13.2504 40.7667 16.7278 39.7116 18.0949 39.0952C18.3095 37.5501 18.9335 36.499 19.621 35.9023C14.2877 35.3017 8.68408 33.2548 8.68408 24.1108C8.65102 21.7394 9.53605 19.4461 11.156 17.7054C10.9096 17.1047 10.087 14.6785 11.3905 11.3829C11.3905 11.3829 13.4054 10.7427 17.9916 13.8289C21.9253 12.7592 26.0757 12.7592 30.0095 13.8289C34.5917 10.7427 36.6026 11.3829 36.6026 11.3829C37.9101 14.6706 37.0875 17.0968 36.8411 17.7054C38.4662 19.4464 39.353 21.7437 39.317 24.1187C39.317 33.2824 33.7015 35.3017 28.3602 35.8905C29.2186 36.6334 29.9856 38.0836 29.9856 40.3122C29.9856 43.5051 29.9578 46.0736 29.9578 46.86C29.9578 47.4962 30.391 48.2391 31.6071 48.0059C37.0119 46.2113 41.5984 42.5634 44.5462 37.7147C47.4941 32.8659 48.611 27.1326 47.6972 21.5401C46.7835 15.9476 43.8986 10.8607 39.5587 7.18921C35.2187 3.51771 29.7067 1.50108 24.0085 1.5H24.0005Z" fill="#3D4D3F"/>
<path d="M16.0557 40.4505C16.0557 40.6442 15.8331 40.8101 15.547 40.8141C15.2608 40.818 15.0264 40.66 15.0264 40.4663C15.0264 40.2727 15.2489 40.1067 15.535 40.1028C15.8212 40.0988 16.0557 40.253 16.0557 40.4505Z" fill="#3D4D3F"/>
<path d="M17.8838 40.1463C17.9196 40.3399 17.7208 40.5414 17.4347 40.5888C17.1486 40.6363 16.8982 40.5217 16.8624 40.332C16.8267 40.1423 17.0333 39.9368 17.3115 39.8855C17.5897 39.8341 17.848 39.9526 17.8838 40.1463Z" fill="#3D4D3F"/>
<path d="M14.0923 40.3162C14.0327 40.5019 13.7625 40.5849 13.4922 40.5058C13.222 40.4268 13.0432 40.2055 13.0948 40.0158C13.1465 39.8262 13.4207 39.7392 13.6949 39.8262C13.9691 39.9131 14.144 40.1225 14.0923 40.3162Z" fill="#3D4D3F"/>
<path d="M12.2921 39.5417C12.161 39.6879 11.8947 39.6484 11.6761 39.4508C11.4575 39.2532 11.4059 38.9845 11.537 38.8423C11.6682 38.7 11.9344 38.7395 12.161 38.9331C12.3875 39.1268 12.4312 39.3994 12.2921 39.5417Z" fill="#3D4D3F"/>
<path d="M11.0085 38.2139C10.8614 38.3167 10.6111 38.2139 10.472 38.0085C10.4335 37.9716 10.4029 37.9274 10.382 37.8785C10.3611 37.8296 10.3503 37.7771 10.3503 37.7239C10.3503 37.6708 10.3611 37.6183 10.382 37.5694C10.4029 37.5205 10.4335 37.4763 10.472 37.4394C10.619 37.3406 10.8694 37.4394 11.0085 37.641C11.1476 37.8425 11.1516 38.1112 11.0085 38.2139Z" fill="#3D4D3F"/>
<path d="M10.0626 36.8428C9.98028 36.884 9.88612 36.8955 9.79622 36.8753C9.70632 36.8551 9.62629 36.8045 9.56979 36.7321C9.41479 36.5662 9.38298 36.337 9.50221 36.2342C9.62143 36.1315 9.83606 36.1789 9.99105 36.3449C10.146 36.5108 10.1818 36.74 10.0626 36.8428Z" fill="#3D4D3F"/>
<path d="M9.08887 35.764C9.03721 35.8826 8.84645 35.9181 8.69146 35.8351C8.53646 35.7522 8.42122 35.598 8.47686 35.4755C8.5325 35.353 8.71928 35.3214 8.87428 35.4044C9.02927 35.4874 9.14848 35.6455 9.08887 35.764Z" fill="#3D4D3F"/>
</g>
<defs>
<clipPath id="clip0_4_27">
<rect width="48" height="48" fill="white" transform="translate(0 0.5)"/>
</clipPath>
</defs>
</svg>
