<svg width="64" height="64" viewBox="0 0 64 64" fill="none" xmlns="http://www.w3.org/2000/svg">
<g clip-path="url(#clip0_192_34)">
<path fill-rule="evenodd" clip-rule="evenodd" d="M32.0007 1.33325C24.404 1.33719 17.0563 4.02781 11.2716 8.92398C5.48693 13.8202 1.64239 20.6026 0.425432 28.0586C-0.791525 35.5145 0.698451 43.1578 4.62897 49.6217C8.55948 56.0856 14.6742 60.9486 21.8798 63.3412C23.4695 63.6362 24.0682 62.651 24.0682 61.8132C24.0682 60.9755 24.0364 58.5466 24.0258 55.8912C15.1237 57.8143 13.2426 52.1345 13.2426 52.1345C11.7907 48.4464 9.69234 47.477 9.69234 47.477C6.78855 45.5065 9.90962 45.5433 9.90962 45.5433C13.126 45.7699 14.8164 48.8258 14.8164 48.8258C17.6672 53.6888 22.3037 52.2821 24.1265 51.4601C24.4127 49.4001 25.2446 47.9986 26.1613 47.203C19.0502 46.4021 11.5787 43.6729 11.5787 31.481C11.5347 28.3191 12.7147 25.2614 14.8747 22.9404C14.5461 22.1396 13.4493 18.9045 15.1873 14.5104C15.1873 14.5104 17.8739 13.6569 23.9888 17.7718C29.2338 16.3456 34.7676 16.3456 40.0126 17.7718C46.1222 13.6569 48.8034 14.5104 48.8034 14.5104C50.5468 18.894 49.4499 22.129 49.1214 22.9404C51.2882 25.2618 52.4707 28.3248 52.4226 31.4916C52.4226 43.7098 44.9353 46.4021 37.8136 47.1872C38.9581 48.1777 39.9808 50.1113 39.9808 53.0829C39.9808 57.3401 39.9437 60.7648 39.9437 61.8132C39.9437 62.6615 40.5213 63.652 42.1427 63.3412C49.3492 60.9483 55.4645 56.0845 59.395 49.6195C63.3254 43.1545 64.8146 35.51 63.5963 28.0534C62.3779 20.5967 58.5315 13.8142 52.7449 8.91887C46.9582 4.02354 39.6089 1.3347 32.0113 1.33325H32.0007Z" fill="#FCFCFC"/>
<path d="M21.4076 53.2675C21.4076 53.5256 21.1108 53.7469 20.7293 53.7522C20.3478 53.7575 20.0352 53.5467 20.0352 53.2885C20.0352 53.0304 20.3319 52.8091 20.7134 52.8038C21.0949 52.7985 21.4076 53.004 21.4076 53.2675Z" fill="#FCFCFC"/>
<path d="M23.845 52.8618C23.8927 53.1199 23.6278 53.3887 23.2463 53.4519C22.8647 53.5151 22.5309 53.3623 22.4832 53.1094C22.4355 52.8565 22.7111 52.5825 23.082 52.514C23.4529 52.4456 23.7973 52.6036 23.845 52.8618Z" fill="#FCFCFC"/>
<path d="M18.7898 53.0883C18.7103 53.3359 18.35 53.4466 17.9897 53.3412C17.6294 53.2358 17.3909 52.9408 17.4598 52.6879C17.5287 52.435 17.8943 52.3191 18.2599 52.435C18.6256 52.5509 18.8587 52.8301 18.7898 53.0883Z" fill="#FCFCFC"/>
<path d="M16.3895 52.0555C16.2146 52.2504 15.8596 52.1977 15.5682 51.9343C15.2767 51.6709 15.2078 51.3126 15.3827 51.1229C15.5575 50.9332 15.9126 50.9859 16.2146 51.2441C16.5166 51.5023 16.5749 51.8658 16.3895 52.0555V52.0555Z" fill="#FCFCFC"/>
<path d="M14.678 50.2854C14.4819 50.4224 14.1481 50.2854 13.9626 50.0114C13.9114 49.9623 13.8706 49.9034 13.8427 49.8382C13.8149 49.773 13.8005 49.7029 13.8005 49.6321C13.8005 49.5613 13.8149 49.4912 13.8427 49.426C13.8706 49.3608 13.9114 49.3019 13.9626 49.2527C14.1587 49.121 14.4925 49.2527 14.678 49.5214C14.8635 49.7902 14.8688 50.1484 14.678 50.2854V50.2854Z" fill="#FCFCFC"/>
<path d="M13.4168 48.4569C13.307 48.5119 13.1815 48.5273 13.0616 48.5004C12.9417 48.4734 12.835 48.406 12.7597 48.3094C12.553 48.0881 12.5106 47.7826 12.6696 47.6456C12.8286 47.5086 13.1147 47.5718 13.3214 47.7931C13.528 48.0144 13.5757 48.32 13.4168 48.4569Z" fill="#FCFCFC"/>
<path d="M12.1185 47.0187C12.0496 47.1767 11.7952 47.2242 11.5886 47.1135C11.3819 47.0029 11.2283 46.7974 11.3025 46.6341C11.3766 46.4707 11.6257 46.4286 11.8323 46.5392C12.039 46.6499 12.198 46.8606 12.1185 47.0187Z" fill="#FCFCFC"/>
</g>
<defs>
<clipPath id="clip0_192_34">
<rect width="64" height="64" fill="white"/>
</clipPath>
</defs>
</svg>
