<svg width="48" height="49" viewBox="0 0 48 49" fill="none" xmlns="http://www.w3.org/2000/svg">
<g clip-path="url(#clip0_4_38)">
<rect x="3" y="4" width="42" height="42" fill="#F2E3DB"/>
<path d="M44.4469 0.5H3.54375C1.58437 0.5 0 2.04688 0 3.95938V45.0312C0 46.9437 1.58437 48.5 3.54375 48.5H44.4469C46.4062 48.5 48 46.9438 48 45.0406V3.95938C48 2.04688 46.4062 0.5 44.4469 0.5ZM14.2406 41.4031H7.11563V18.4906H14.2406V41.4031ZM10.6781 15.3688C8.39062 15.3688 6.54375 13.5219 6.54375 11.2437C6.54375 8.96562 8.39062 7.11875 10.6781 7.11875C12.9563 7.11875 14.8031 8.96562 14.8031 11.2437C14.8031 13.5125 12.9563 15.3688 10.6781 15.3688ZM40.9031 41.4031H33.7875V30.2656C33.7875 27.6125 33.7406 24.1906 30.0844 24.1906C26.3812 24.1906 25.8187 27.0875 25.8187 30.0781V41.4031H18.7125V18.4906H25.5375V21.6219H25.6312C26.5781 19.8219 28.9031 17.9188 32.3625 17.9188C39.5719 17.9188 40.9031 22.6625 40.9031 28.8313V41.4031Z" fill="#3D4D3F"/>
</g>
<defs>
<clipPath id="clip0_4_38">
<rect width="48" height="48" fill="white" transform="translate(0 0.5)"/>
</clipPath>
</defs>
</svg>
