<svg width="64" height="64" viewBox="0 0 64 64" fill="none" xmlns="http://www.w3.org/2000/svg">
<g clip-path="url(#clip0_192_45)">
<path d="M59.2625 0H4.725C2.1125 0 0 2.0625 0 4.6125V59.375C0 61.925 2.1125 64 4.725 64H59.2625C61.875 64 64 61.925 64 59.3875V4.6125C64 2.0625 61.875 0 59.2625 0ZM18.9875 54.5375H9.4875V23.9875H18.9875V54.5375ZM14.2375 19.825C11.1875 19.825 8.725 17.3625 8.725 14.325C8.725 11.2875 11.1875 8.825 14.2375 8.825C17.275 8.825 19.7375 11.2875 19.7375 14.325C19.7375 17.35 17.275 19.825 14.2375 19.825ZM54.5375 54.5375H45.05V39.6875C45.05 36.15 44.9875 31.5875 40.1125 31.5875C35.175 31.5875 34.425 35.45 34.425 39.4375V54.5375H24.95V23.9875H34.05V28.1625H34.175C35.4375 25.7625 38.5375 23.225 43.15 23.225C52.7625 23.225 54.5375 29.55 54.5375 37.775V54.5375V54.5375Z" fill="#FCFCFC"/>
</g>
<defs>
<clipPath id="clip0_192_45">
<rect width="64" height="64" fill="white"/>
</clipPath>
</defs>
</svg>
