<svg width="46" height="46" viewBox="0 0 46 46" fill="none" xmlns="http://www.w3.org/2000/svg">
<path d="M7.66659 38.3333C6.61242 38.3333 5.70999 37.958 4.95929 37.2073C4.2086 36.4566 3.83325 35.5542 3.83325 34.5V11.5C3.83325 10.4458 4.2086 9.54341 4.95929 8.79271C5.70999 8.04202 6.61242 7.66667 7.66659 7.66667H38.3333C39.3874 7.66667 40.2898 8.04202 41.0405 8.79271C41.7912 9.54341 42.1666 10.4458 42.1666 11.5V34.5C42.1666 35.5542 41.7912 36.4566 41.0405 37.2073C40.2898 37.958 39.3874 38.3333 38.3333 38.3333H7.66659ZM22.9999 24.9167L7.66659 15.3333V34.5H38.3333V15.3333L22.9999 24.9167ZM22.9999 21.0833L38.3333 11.5H7.66659L22.9999 21.0833ZM7.66659 15.3333V11.5V34.5V15.3333Z" fill="#203631"/>
</svg>
