<svg width="64" height="64" viewBox="0 0 64 64" fill="none" xmlns="http://www.w3.org/2000/svg">
<path fill-rule="evenodd" clip-rule="evenodd" d="M64 32C64 49.6731 49.6731 64 32 64C14.3269 64 0 49.6731 0 32C0 14.3269 14.3269 0 32 0C49.6731 0 64 14.3269 64 32ZM48.655 27.3217C51.2375 27.3217 53.3334 29.4176 53.3334 32.0001C53.3334 33.9089 52.1731 35.5557 50.6386 36.3042C50.7135 36.7533 50.7509 37.2024 50.7509 37.689C50.7509 44.875 42.4047 50.6761 32.0749 50.6761C21.7451 50.6761 13.3989 44.875 13.3989 37.689C13.3989 37.2024 13.4363 36.7159 13.5111 36.2668C11.8644 35.5182 10.7415 33.9089 10.7415 32.0001C10.7415 29.4176 12.8375 27.3217 15.4199 27.3217C16.655 27.3217 17.8152 27.8457 18.6386 28.6317C21.8573 26.2738 26.3111 24.8141 31.2889 24.6644L33.6468 13.5112C33.7217 13.2866 33.8339 13.0995 34.0211 12.9872C34.2082 12.875 34.4328 12.8375 34.6573 12.875L42.4047 14.5217C42.9287 13.3989 44.0515 12.6504 45.3614 12.6504C47.1954 12.6504 48.6924 14.1475 48.6924 15.9814C48.6924 17.8153 47.1954 19.3124 45.3614 19.3124C43.5649 19.3124 42.1053 17.8902 42.0304 16.1311L35.1065 14.6714L32.9731 24.6644C37.8386 24.8516 42.255 26.3486 45.4363 28.6317C46.2597 27.8083 47.3825 27.3217 48.655 27.3217ZM24.6644 32.0001C22.8304 32.0001 21.3334 33.4972 21.3334 35.3311C21.3334 37.165 22.8304 38.6621 24.6644 38.6621C26.4983 38.6621 27.9953 37.165 27.9953 35.3311C27.9953 33.4972 26.4983 32.0001 24.6644 32.0001ZM32.0375 46.5592C33.31 46.5592 37.6515 46.4095 39.9345 44.1264C40.2714 43.7896 40.2714 43.2656 40.0094 42.8913C39.6725 42.5545 39.1111 42.5545 38.7743 42.8913C37.3146 44.3135 34.2831 44.8375 32.0749 44.8375C29.8667 44.8375 26.7977 44.3135 25.3755 42.8913C25.0386 42.5545 24.4772 42.5545 24.1404 42.8913C23.8035 43.2282 23.8035 43.7896 24.1404 44.1264C26.386 46.372 30.7649 46.5592 32.0375 46.5592ZM36.0047 35.3311C36.0047 37.165 37.5018 38.6621 39.3357 38.6621C41.1696 38.6621 42.6667 37.165 42.6667 35.3311C42.6667 33.4972 41.1696 32.0001 39.3357 32.0001C37.5018 32.0001 36.0047 33.4972 36.0047 35.3311Z" fill="#FCFCFC"/>
</svg>
