<svg width="48" height="49" viewBox="0 0 48 49" fill="none" xmlns="http://www.w3.org/2000/svg">
<g clip-path="url(#clip0_4_41)">
<path d="M15.1003 44.0001C33.2091 44.0001 43.1166 28.9935 43.1166 15.9838C43.1166 15.5619 43.1072 15.1307 43.0884 14.7088C45.0158 13.315 46.679 11.5886 48 9.61069C46.205 10.4093 44.2993 10.9309 42.3478 11.1576C44.4026 9.92591 45.9411 7.99104 46.6781 5.71163C44.7451 6.85721 42.6312 7.66532 40.4269 8.10131C38.9417 6.52321 36.978 5.47832 34.8394 5.12819C32.7008 4.77806 30.5064 5.14219 28.5955 6.16428C26.6846 7.18638 25.1636 8.8095 24.2677 10.7827C23.3718 12.7559 23.1509 14.9693 23.6391 17.0807C19.725 16.8843 15.8959 15.8675 12.4 14.0963C8.90405 12.3251 5.81939 9.83896 3.34594 6.79913C2.0888 8.96658 1.70411 11.5314 2.27006 13.9723C2.83601 16.4132 4.31013 18.547 6.39281 19.9401C4.82926 19.8904 3.29995 19.4695 1.93125 18.7119V18.8338C1.92985 21.1084 2.7162 23.3133 4.15662 25.0736C5.59704 26.834 7.60265 28.0412 9.8325 28.4901C8.38411 28.8863 6.86396 28.9441 5.38969 28.6588C6.01891 30.615 7.24315 32.3259 8.89154 33.5528C10.5399 34.7796 12.5302 35.4613 14.5847 35.5026C11.0968 38.2423 6.78835 39.7283 2.35313 39.7213C1.56657 39.7201 0.780798 39.6719 0 39.5769C4.50571 42.4676 9.74706 44.0029 15.1003 44.0001Z" fill="#3D4D3F"/>
</g>
<defs>
<clipPath id="clip0_4_41">
<rect width="48" height="48" fill="white" transform="translate(0 0.5)"/>
</clipPath>
</defs>
</svg>
