<svg width="64" height="64" viewBox="0 0 64 64" fill="none" xmlns="http://www.w3.org/2000/svg">
<path d="M63.3625 19.2C63.3625 19.2 62.7375 14.7875 60.8125 12.85C58.375 10.3 55.65 10.2875 54.4 10.1375C45.45 9.48755 32.0125 9.48755 32.0125 9.48755H31.9875C31.9875 9.48755 18.55 9.48755 9.6 10.1375C8.35 10.2875 5.625 10.3 3.1875 12.85C1.2625 14.7875 0.65 19.2 0.65 19.2C0.65 19.2 0 24.3875 0 29.5625V34.4125C0 39.5875 0.6375 44.775 0.6375 44.775C0.6375 44.775 1.2625 49.1875 3.175 51.125C5.6125 53.675 8.8125 53.5875 10.2375 53.8625C15.3625 54.35 32 54.5 32 54.5C32 54.5 45.45 54.475 54.4 53.8375C55.65 53.6875 58.375 53.675 60.8125 51.125C62.7375 49.1875 63.3625 44.775 63.3625 44.775C63.3625 44.775 64 39.6 64 34.4125V29.5625C64 24.3875 63.3625 19.2 63.3625 19.2ZM25.3875 40.3V22.3125L42.675 31.3375L25.3875 40.3Z" fill="#FCFCFC"/>
</svg>
