<svg width="48" height="49" viewBox="0 0 48 49" fill="none" xmlns="http://www.w3.org/2000/svg">
<rect x="10" y="12" width="27" height="24" fill="#F2E3DB"/>
<path d="M47.5219 14.9001C47.5219 14.9001 47.0531 11.5907 45.6094 10.1376C43.7812 8.2251 41.7375 8.21572 40.8 8.10322C34.0875 7.61572 24.0094 7.61572 24.0094 7.61572H23.9906C23.9906 7.61572 13.9125 7.61572 7.2 8.10322C6.2625 8.21572 4.21875 8.2251 2.39062 10.1376C0.946875 11.5907 0.4875 14.9001 0.4875 14.9001C0.4875 14.9001 0 18.7907 0 22.672V26.3095C0 30.1907 0.478125 34.0813 0.478125 34.0813C0.478125 34.0813 0.946875 37.3907 2.38125 38.8438C4.20937 40.7563 6.60938 40.6907 7.67813 40.897C11.5219 41.2626 24 41.3751 24 41.3751C24 41.3751 34.0875 41.3563 40.8 40.8782C41.7375 40.7657 43.7812 40.7563 45.6094 38.8438C47.0531 37.3907 47.5219 34.0813 47.5219 34.0813C47.5219 34.0813 48 30.2001 48 26.3095V22.672C48 18.7907 47.5219 14.9001 47.5219 14.9001ZM19.0406 30.7251V17.2345L32.0062 24.0032L19.0406 30.7251Z" fill="#3D4D3F"/>
</svg>
